<?xml version="1.0" encoding="UTF-8" standalone="no"?>
<!-- Created with Inkscape (http://www.inkscape.org/) -->

<svg
   version="1.1"
   id="svg2895"
   xml:space="preserve"
   width="682.66669"
   height="682.66669"
   viewBox="0 0 682.66669 682.66669"
   xmlns="http://www.w3.org/2000/svg"
   xmlns:svg="http://www.w3.org/2000/svg"><defs
     id="defs2899"><clipPath
       clipPathUnits="userSpaceOnUse"
       id="clipPath2909"><path
         d="M 0,512 H 512 V 0 H 0 Z"
         id="path2907" /></clipPath></defs><g
     id="g2901"
     transform="matrix(1.3333333,0,0,-1.3333333,0,682.66667)"><g
       id="g2903"><g
         id="g2905"
         clip-path="url(#clipPath2909)"><g
           id="g2911"
           transform="translate(475.9302,155.8301)"><path
             d="m 0,0 c 18.29,-9.68 29.69,-29.65 27.7,-51.2 l -5.22,-56.82 v -40.31 h -152.96 l -49.7,40.31 v -40.31 h -83.89 V -0.79 l -3.72,19.93"
             style="fill:none;stroke:#000000;stroke-width:15;stroke-linecap:round;stroke-linejoin:round;stroke-miterlimit:10;stroke-dasharray:none;stroke-opacity:1"
             id="path2913" /></g><g
           id="g2915"
           transform="translate(257.6299,362.4702)"><path
             d="m 0,0 h 131.78 l -22.64,-140.78 c -3.62,-22.51 11.17,-43.85 33.51,-48.37 l 46.81,-9.47"
             style="fill:none;stroke:#000000;stroke-width:15;stroke-linecap:round;stroke-linejoin:round;stroke-miterlimit:10;stroke-dasharray:none;stroke-opacity:1"
             id="path2917" /></g><g
           id="g2919"
           transform="translate(211.8613,47.8086)"><path
             d="m 0,0 h 83.89 3.238 199.419"
             style="fill:none;stroke:#000000;stroke-width:15;stroke-linecap:round;stroke-linejoin:round;stroke-miterlimit:10;stroke-dasharray:none;stroke-opacity:1"
             id="path2921" /></g><g
           id="g2923"
           transform="translate(369.2969,237.3857)"><path
             d="m 0,0 h -6.934 c -22.66,0 -39.024,-21.684 -32.81,-43.475 l 4.242,-14.875 c 4.859,-17.04 1.842,-35.362 -8.227,-49.944 -11.068,-16.03 -29.306,-25.6 -48.786,-25.6 h -64.921"
             style="fill:none;stroke:#000000;stroke-width:15;stroke-linecap:round;stroke-linejoin:round;stroke-miterlimit:10;stroke-dasharray:none;stroke-opacity:1"
             id="path2925" /></g><g
           id="g2927"
           transform="translate(98.4688,467.0986)"><path
             d="M 0,0 V -114.691"
             style="fill:none;stroke:#000000;stroke-width:15;stroke-linecap:round;stroke-linejoin:round;stroke-miterlimit:10;stroke-dasharray:none;stroke-opacity:1"
             id="path2929" /></g><g
           id="g2931"
           transform="translate(151.5215,457.9517)"><path
             d="M 0,0 V -101.36"
             style="fill:none;stroke:#000000;stroke-width:15;stroke-linecap:round;stroke-linejoin:round;stroke-miterlimit:10;stroke-dasharray:none;stroke-opacity:1"
             id="path2933" /></g><g
           id="g2935"
           transform="translate(204.5742,433.2646)"><path
             d="M 0,0 V -84.17"
             style="fill:none;stroke:#000000;stroke-width:15;stroke-linecap:round;stroke-linejoin:round;stroke-miterlimit:10;stroke-dasharray:none;stroke-opacity:1"
             id="path2937" /></g><g
           id="g2939"
           transform="translate(69.0444,286.9062)"><path
             d="m 0,0 v 68.759 c 0,16.817 -13.633,30.449 -30.45,30.449 v 0 c -16.817,0 -30.45,-13.632 -30.45,-30.449 V -3.112 c 0,-33.634 27.266,-60.9 60.9,-60.9"
             style="fill:none;stroke:#000000;stroke-width:15;stroke-linecap:round;stroke-linejoin:round;stroke-miterlimit:10;stroke-dasharray:none;stroke-opacity:1"
             id="path2941" /></g><g
           id="g2943"
           transform="translate(45.4199,385.3398)"><path
             d="M 0,0 V 38.04"
             style="fill:none;stroke:#000000;stroke-width:15;stroke-linecap:round;stroke-linejoin:round;stroke-miterlimit:10;stroke-dasharray:none;stroke-opacity:1"
             id="path2945" /></g><g
           id="g2947"
           transform="translate(45.4199,453.3799)"><path
             d="m 0,0 v 13.72 c 0,7.33 2.97,13.96 7.77,18.75 4.8,4.8 11.43,7.77 18.75,7.77 14.65,0 26.53,-11.87 26.53,-26.52 v 10.87 c 0,7.32 2.97,13.95 7.77,18.76 4.8,4.8 11.42,7.77 18.75,7.77 14.66,0 26.53,-11.88 26.53,-26.53 V 4.57 c 0,7.33 2.97,13.96 7.78,18.75 4.79,4.81 11.43,7.78 18.75,7.78 14.64,0 26.52,-11.88 26.52,-26.53 v -24.69 c 0,7.33 2.97,13.96 7.77,18.76 4.8,4.8 11.44,7.77 18.76,7.77 14.65,0 26.53,-11.87 26.53,-26.53 V -192.2 c 0,-18.16 -9.18,-34.18 -23.16,-43.67 l 14.47,-42.54 H -9.28 l 14.47,42.54 v 8.23"
             style="fill:none;stroke:#000000;stroke-width:15;stroke-linecap:round;stroke-linejoin:round;stroke-miterlimit:10;stroke-dasharray:none;stroke-opacity:1"
             id="path2949" /></g><g
           id="g2951"
           transform="translate(98.4346,327.6812)"><path
             d="M 0,0 V 0"
             style="fill:none;stroke:#000000;stroke-width:15;stroke-linecap:round;stroke-linejoin:round;stroke-miterlimit:4;stroke-dasharray:none;stroke-opacity:1"
             id="path2953" /></g><g
           id="g2955"
           transform="translate(128.272,327.6812)"><path
             d="M 0,0 H 74.593"
             style="fill:none;stroke:#000000;stroke-width:15;stroke-linecap:round;stroke-linejoin:round;stroke-miterlimit:4;stroke-dasharray:0, 29.837;stroke-dashoffset:0;stroke-opacity:1"
             id="path2957" /></g><g
           id="g2959"
           transform="translate(217.7832,327.6812)"><path
             d="M 0,0 V 0"
             style="fill:none;stroke:#000000;stroke-width:15;stroke-linecap:round;stroke-linejoin:round;stroke-miterlimit:4;stroke-dasharray:none;stroke-opacity:1"
             id="path2961" /></g><g
           id="g2963"
           transform="translate(109.2886,302.5762)"><path
             d="M 0,0 V 0"
             style="fill:none;stroke:#000000;stroke-width:15;stroke-linecap:round;stroke-linejoin:round;stroke-miterlimit:4;stroke-dasharray:none;stroke-opacity:1"
             id="path2965" /></g><g
           id="g2967"
           transform="translate(141.8354,302.5762)"><path
             d="M 0,0 H 48.82"
             style="fill:none;stroke:#000000;stroke-width:15;stroke-linecap:round;stroke-linejoin:round;stroke-miterlimit:4;stroke-dasharray:0, 32.547;stroke-dashoffset:0;stroke-opacity:1"
             id="path2969" /></g><g
           id="g2971"
           transform="translate(206.9292,302.5762)"><path
             d="M 0,0 V 0"
             style="fill:none;stroke:#000000;stroke-width:15;stroke-linecap:round;stroke-linejoin:round;stroke-miterlimit:4;stroke-dasharray:none;stroke-opacity:1"
             id="path2973" /></g><g
           id="g2975"
           transform="translate(98.4346,277.4712)"><path
             d="M 0,0 V 0"
             style="fill:none;stroke:#000000;stroke-width:15;stroke-linecap:round;stroke-linejoin:round;stroke-miterlimit:4;stroke-dasharray:none;stroke-opacity:1"
             id="path2977" /></g><g
           id="g2979"
           transform="translate(128.272,277.4712)"><path
             d="M 0,0 H 74.593"
             style="fill:none;stroke:#000000;stroke-width:15;stroke-linecap:round;stroke-linejoin:round;stroke-miterlimit:4;stroke-dasharray:0, 29.837;stroke-dashoffset:0;stroke-opacity:1"
             id="path2981" /></g><g
           id="g2983"
           transform="translate(217.7832,277.4712)"><path
             d="M 0,0 V 0"
             style="fill:none;stroke:#000000;stroke-width:15;stroke-linecap:round;stroke-linejoin:round;stroke-miterlimit:4;stroke-dasharray:none;stroke-opacity:1"
             id="path2985" /></g><g
           id="g2987"
           transform="translate(109.2886,252.3662)"><path
             d="M 0,0 V 0"
             style="fill:none;stroke:#000000;stroke-width:15;stroke-linecap:round;stroke-linejoin:round;stroke-miterlimit:4;stroke-dasharray:none;stroke-opacity:1"
             id="path2989" /></g><g
           id="g2991"
           transform="translate(141.8354,252.3662)"><path
             d="M 0,0 H 48.82"
             style="fill:none;stroke:#000000;stroke-width:15;stroke-linecap:round;stroke-linejoin:round;stroke-miterlimit:4;stroke-dasharray:0, 32.547;stroke-dashoffset:0;stroke-opacity:1"
             id="path2993" /></g><g
           id="g2995"
           transform="translate(206.9292,252.3662)"><path
             d="M 0,0 V 0"
             style="fill:none;stroke:#000000;stroke-width:15;stroke-linecap:round;stroke-linejoin:round;stroke-miterlimit:4;stroke-dasharray:none;stroke-opacity:1"
             id="path2997" /></g></g></g></g></svg>
